<?xml version="1.0" standalone="no"?>
<!DOCTYPE svg>
<svg version="1.0" xmlns="http://www.w3.org/2000/svg"
 width="300.000000pt" height="159.000000pt" viewBox="0 0 300.000000 159.000000"
 preserveAspectRatio="xMidYMid meet">
<g transform="translate(0.000000,159.000000) scale(0.100000,-0.100000)"
fill="#ffffff" stroke="none">
<path d="M1260 1470 c-8 -5 -90 -10 -182 -10 l-168 0 0 -105 0 -105 -140 0
-140 0 0 90 0 90 -268 0 -268 0 4 -100 c4 -96 4 -100 -17 -100 -20 0 -21 -4
-21 -135 0 -129 1 -135 20 -135 21 0 21 -2 18 -440 l-3 -440 149 0 148 0 -6
25 -6 25 125 0 c69 0 125 4 125 9 0 5 19 11 43 15 47 8 313 71 338 81 10 4 19
-2 26 -18 20 -42 76 -99 118 -118 121 -55 225 15 287 193 l23 68 -84 167 -84
168 -17 -52 c-8 -29 -18 -55 -21 -58 -5 -5 -19 112 -34 300 l-6 70 111 -3 110
-4 0 133 c0 103 3 136 15 149 13 14 10 23 -29 80 -44 67 -133 170 -144 170 -4
0 -14 -5 -22 -10z m49 -96 c38 -42 86 -113 80 -117 -2 -2 -25 -16 -51 -31 -27
-15 -48 -29 -48 -32 0 -3 20 -2 45 2 l45 6 0 -96 0 -96 -111 0 -111 0 6 -62
c3 -35 8 -103 11 -153 7 -103 31 -282 46 -338 15 -56 39 -46 65 28 l22 60 48
-97 48 -96 -28 -72 c-17 -42 -43 -86 -63 -106 -29 -29 -40 -34 -83 -34 -41 0
-55 5 -84 31 -91 80 -148 313 -162 672 l-7 167 -174 0 -173 0 0 95 0 96 170
-3 170 -3 0 103 0 102 95 0 95 0 0 -26 0 -26 53 30 c28 17 55 31 58 31 4 1 21
-15 38 -35z m-739 -74 l0 -80 -210 0 -210 0 0 80 0 80 210 0 210 0 0 -80z m25
-205 l1 -75 -243 0 -243 0 0 73 c0 41 2 76 4 78 2 2 111 3 242 2 l239 -2 0
-76z m-25 -200 l0 -75 -210 0 -210 0 0 75 0 75 210 0 210 0 0 -75z m390 -55
l0 -90 -40 0 -40 0 0 -154 0 -153 55 15 c30 8 57 13 59 11 2 -2 6 -43 9 -91
l5 -87 -167 -40 c-91 -22 -180 -42 -197 -46 l-31 -6 -7 66 c-4 36 -9 78 -12
94 -6 27 -4 28 48 37 l53 9 3 173 2 172 -42 0 -43 0 0 90 0 90 173 0 172 0 0
-90z m-390 -145 l0 -75 -210 0 -210 0 0 75 0 75 210 0 210 0 0 -75z m75 -121
c0 -112 -2 -129 -17 -132 -13 -3 -17 9 -22 65 -8 95 -8 104 -1 143 10 53 14
62 28 57 9 -3 12 -38 12 -133z m310 74 c3 -29 8 -71 11 -94 5 -33 2 -42 -12
-48 -10 -4 -21 -1 -26 6 -9 15 -11 149 -2 172 11 30 22 16 29 -36z m-385 -268
l0 -190 -120 0 -120 0 0 -25 c0 -25 -1 -25 -90 -25 l-90 0 0 215 0 215 210 0
210 0 0 -190z"/>
<path d="M1157 1264 l1 -66 51 -2 c28 -1 51 0 51 2 0 8 -94 132 -99 132 -3 0
-5 -30 -4 -66z"/>
<path d="M330 383 l0 -48 45 0 45 0 0 48 0 47 -45 0 -45 0 0 -47z"/>
<path d="M2297 1408 c-20 -29 -55 -71 -77 -93 l-41 -40 2 75 2 75 -316 3 -317
2 0 -400 c0 -220 -4 -400 -8 -400 -5 0 -12 -48 -15 -107 -4 -60 -15 -140 -25
-179 l-18 -72 79 -81 c43 -46 81 -80 84 -77 3 3 13 34 23 68 14 54 21 63 41
66 24 3 26 -1 40 -80 l15 -83 104 -3 c117 -4 165 7 209 44 l30 25 23 -40 c13
-23 27 -41 31 -41 4 0 36 14 70 31 74 38 165 106 204 154 l29 34 70 -67 c63
-60 195 -147 241 -158 15 -4 29 20 78 132 33 75 61 141 63 145 2 5 -9 14 -25
20 -62 23 -143 62 -143 69 0 4 24 5 53 2 l52 -4 0 268 c0 148 -4 272 -8 275
-4 3 11 54 34 112 23 59 40 108 38 110 -2 1 -34 17 -70 35 -78 39 -163 112
-210 181 l-34 50 -136 1 -136 0 -36 -52z m283 -18 c0 -22 143 -158 203 -193
l64 -38 -34 -87 c-19 -48 -36 -88 -37 -90 -2 -1 -22 11 -44 28 l-42 30 0 -35
0 -35 -70 0 -70 0 0 -30 0 -30 125 0 125 0 0 -210 0 -210 -97 0 -97 0 53 -54
c30 -30 82 -69 118 -87 35 -18 62 -35 61 -39 -2 -3 -19 -43 -38 -88 -19 -45
-39 -82 -44 -82 -5 0 -34 14 -65 32 -67 38 -170 138 -198 191 l-19 38 -39 -56
c-47 -68 -128 -143 -197 -180 -59 -32 -55 -35 -111 67 -35 63 -47 71 -47 33 0
-39 -38 -105 -66 -115 -14 -6 -65 -10 -113 -10 l-88 0 -11 65 c-7 35 -15 71
-18 80 -5 13 6 15 70 15 100 0 105 7 117 177 4 70 8 133 9 139 0 8 -54 11
-185 10 l-186 -1 -2 373 -2 372 263 0 262 0 0 -75 0 -75 -75 0 -75 0 0 -30 0
-30 63 0 c55 0 69 4 117 36 64 41 140 113 177 166 l26 38 108 0 c66 0 109 -4
109 -10z m-641 -852 c24 -130 24 -127 -4 -138 -15 -6 -28 -10 -29 -10 -2 0 -6
28 -9 63 -3 34 -9 76 -13 94 -6 31 -2 35 38 42 4 0 11 -23 17 -51z m-295 22
c21 0 22 -3 19 -67 -4 -80 -32 -265 -41 -275 -4 -4 -21 10 -39 32 l-32 38 14
68 c7 38 16 101 19 139 3 39 5 72 5 74 1 2 8 0 17 -3 9 -3 26 -6 38 -6z m211
-42 c3 -29 7 -78 8 -108 l2 -55 -32 -3 -33 -3 0 79 c0 44 -3 94 -6 111 -6 29
-5 31 24 31 29 0 31 -2 37 -52z m-95 -82 l0 -124 -37 -4 c-21 -3 -39 -4 -40
-3 -2 0 2 28 7 61 6 32 10 89 10 127 l0 67 30 0 30 0 0 -124z"/>
<path d="M2422 1194 l-52 -64 107 0 107 0 -40 43 c-23 23 -47 52 -55 63 -14
21 -16 20 -67 -42z"/>
<path d="M1770 1190 c0 -29 2 -30 45 -30 43 0 45 1 45 30 0 29 -2 30 -45 30
-43 0 -45 -1 -45 -30z"/>
<path d="M2097 1069 l6 -41 -56 3 -55 4 -4 -32 -4 -33 58 0 58 0 0 -70 0 -70
-58 0 -58 0 4 -32 4 -33 65 3 66 4 -7 -164 c-4 -89 -11 -192 -15 -228 -5 -36
-6 -67 -4 -70 15 -17 223 142 223 171 0 5 -36 9 -80 9 l-80 0 0 210 0 210 115
0 115 0 0 30 0 30 -65 0 -65 0 0 35 0 35 -42 -30 c-22 -16 -44 -30 -47 -30 -4
0 -20 29 -36 65 -16 36 -32 65 -36 65 -4 0 -5 -18 -2 -41z m121 -625 c9 -3 4
-12 -16 -29 -40 -33 -52 -32 -52 9 0 31 2 33 28 29 15 -3 33 -7 40 -9z"/>
<path d="M1770 1003 c0 -32 1 -33 45 -33 43 0 45 1 45 29 0 27 -3 29 -45 33
-45 3 -45 3 -45 -29z"/>
<path d="M1770 798 c0 -32 1 -33 42 -32 41 1 43 3 46 33 3 31 3 31 -42 31 -45
0 -46 -1 -46 -32z"/>
<path d="M2308 700 l4 -60 33 0 c28 0 33 4 39 31 3 17 6 44 6 60 0 27 -2 29
-42 29 l-43 0 3 -60z"/>
<path d="M2550 700 l0 -60 45 0 45 0 0 60 0 60 -45 0 -45 0 0 -60z"/>
</g>
</svg>
